# xmcd
#
# Track frame offsets: 
#        150
#        9589
#        21162
#        29834
#        40822
#        49921
#        58584
#        69153
#        80347
#        88447
#        98802
#        107686
#        120469
#        133189
#        143521
#        158955
#
# Disc length: 2285 seconds
#
# Revision: 0
# Processed by: cddbd v1.5.2PL0 Copyright (c) Steve Scherf et al.
# Submitted via: ExactAudioCopy v0.95b4
#
DISCID=d608eb10
DTITLE=Johnny Cash - The Legend Lives On
DYEAR=2008
DGENRE=Country
TTITLE0=ItWas Jesus
TTITLE1=I Saw A Man
TTITLE2=Are All The Children In
TTITLE3=The Old Account Was Settled
TTITLE4=Lead me Gently Home, Father
TTITLE5=Swing Low, Sweet Chariot
TTITLE6=Snow In His Hair
TTITLE7=Lead me father
TTITLE8=I Call him
TTITLE9=These Things Shall Pass
TTITLE10=He'll Be A Friend
TTITLE11=Ring Of Fire (Live)
TTITLE12=Give My love To Rose
TTITLE13=Hey Porter
TTITLE14=Rockabilly Blues
TTITLE15=Next In Line
EXTD=
EXTT0=
EXTT1=
EXTT2=
EXTT3=
EXTT4=
EXTT5=
EXTT6=
EXTT7=
EXTT8=
EXTT9=
EXTT10=
EXTT11=
EXTT12=
EXTT13=
EXTT14=
EXTT15=
PLAYORDER=
